<svg width="400" height="300" viewBox="0 0 400 300" xmlns="http://www.w3.org/2000/svg">
  <defs>
    <linearGradient id="mountainGradient" x1="0%" y1="0%" x2="100%" y2="100%">
      <stop offset="0%" style="stop-color:#E8F5E8;stop-opacity:1" />
      <stop offset="50%" style="stop-color:#D4E6D4;stop-opacity:1" />
      <stop offset="100%" style="stop-color:#C2D9C2;stop-opacity:1" />
    </linearGradient>
    <linearGradient id="skyGradient" x1="0%" y1="0%" x2="100%" y2="100%">
      <stop offset="0%" style="stop-color:#F0F8F0;stop-opacity:1" />
      <stop offset="100%" style="stop-color:#E8F5E8;stop-opacity:1" />
    </linearGradient>
  </defs>
  
  <!-- Sky background -->
  <rect width="400" height="300" fill="url(#skyGradient)"/>
  
  <!-- Mountain range -->
  <g fill="url(#mountainGradient)">
    <path d="M0 200 L50 120 L100 200 Z"/>
    <path d="M80 200 L130 100 L180 200 Z"/>
    <path d="M160 200 L210 80 L260 200 Z"/>
    <path d="M240 200 L290 90 L340 200 Z"/>
    <path d="M320 200 L370 110 L400 200 Z"/>
  </g>
  
  <!-- Trees -->
  <g fill="#8FBC8F">
    <circle cx="60" cy="180" r="8"/>
    <circle cx="80" cy="175" r="6"/>
    <circle cx="140" cy="170" r="10"/>
    <circle cx="160" cy="165" r="7"/>
    <circle cx="220" cy="160" r="9"/>
    <circle cx="240" cy="155" r="6"/>
    <circle cx="300" cy="170" r="8"/>
    <circle cx="320" cy="165" r="7"/>
  </g>
  
  <!-- Sun -->
  <circle cx="320" cy="60" r="25" fill="#FFE4B5" opacity="0.8"/>
  
  <!-- Clouds -->
  <g fill="#FFFFFF" opacity="0.7">
    <ellipse cx="100" cy="50" rx="30" ry="15"/>
    <ellipse cx="120" cy="45" rx="25" ry="12"/>
    <ellipse cx="80" cy="45" rx="20" ry="10"/>
    
    <ellipse cx="250" cy="40" rx="35" ry="18"/>
    <ellipse cx="270" cy="35" rx="28" ry="14"/>
    <ellipse cx="230" cy="35" rx="22" ry="11"/>
  </g>
</svg>
